<?xml version="1.0" encoding="UTF-8" standalone="no"?>
<svg width="80px" height="80px" viewBox="0 0 80 80" version="1.1" xmlns="http://www.w3.org/2000/svg" xmlns:xlink="http://www.w3.org/1999/xlink">
    <!-- Generator: Sketch 3.6.1 (26313) - http://www.bohemiancoding.com/sketch -->
    <title>Slice 1</title>
    <desc>Created with Sketch.</desc>
    <defs></defs>
    <g id="Page-1" stroke="none" stroke-width="1" fill="none" fill-rule="evenodd">
        <g id="exit" transform="translate(24.000000, 24.000000)" fill="#FFFFFF">
            <g id="exit-content">
                <g>
                    <path d="M29.26175,31.76175 C28.62175,31.76175 27.98175,31.51775 27.49375,31.02975 L0.73275,4.26775 C-0.24425,3.29175 -0.24425,1.70875 0.73275,0.73275 C1.70875,-0.24425 3.29275,-0.24425 4.26775,0.73275 L31.02875,27.49475 C32.00575,28.47075 32.00575,30.05375 31.02875,31.02975 C30.54175,31.51775 29.90175,31.76175 29.26175,31.76175 L29.26175,31.76175 L29.26175,31.76175 Z" id="shape2"></path>
                    <path d="M2.50075,31.76075 C1.86075,31.76075 1.22075,31.51675 0.73275,31.02875 C-0.24425,30.05275 -0.24425,28.46975 0.73275,27.49375 L27.49475,0.73275 C28.47075,-0.24425 30.05475,-0.24425 31.02975,0.73275 C32.00675,1.70875 32.00675,3.29175 31.02975,4.26775 L4.26775,31.02875 C3.78075,31.51675 3.14075,31.76075 2.50075,31.76075 L2.50075,31.76075 L2.50075,31.76075 Z" id="shape1"></path>
                </g>
            </g>
        </g>
    </g>
</svg>