<?xml version="1.0" encoding="UTF-8" standalone="no"?>
<svg width="77px" height="77px" viewBox="0 0 77 77" version="1.1" xmlns="http://www.w3.org/2000/svg" xmlns:xlink="http://www.w3.org/1999/xlink">
    <!-- Generator: Sketch 3.6.1 (26313) - http://www.bohemiancoding.com/sketch -->
    <title>Slice 1</title>
    <desc>Created with Sketch.</desc>
    <defs></defs>
    <g id="exit" stroke="none" stroke-width="1" fill="none" fill-rule="evenodd">
        <g id="exit-content">
            <circle id="oval" fill="#FFFFFF" cx="38.331" cy="38.692" r="38"></circle>
            <path d="M51.711,54.573 C51.071,54.573 50.431,54.329 49.943,53.841 L23.182,27.079 C22.205,26.103 22.205,24.52 23.182,23.544 C24.158,22.567 25.742,22.567 26.717,23.544 L53.478,50.306 C54.455,51.282 54.455,52.865 53.478,53.841 C52.991,54.329 52.351,54.573 51.711,54.573 L51.711,54.573 Z" id="shape2" fill="#231F20"></path>
            <path d="M24.95,54.573 C24.31,54.573 23.67,54.329 23.182,53.841 C22.205,52.865 22.205,51.282 23.182,50.306 L49.944,23.545 C50.92,22.568 52.504,22.568 53.479,23.545 C54.456,24.521 54.456,26.104 53.479,27.08 L26.717,53.841 C26.23,54.329 25.59,54.573 24.95,54.573 L24.95,54.573 Z" id="shape1" fill="#231F20"></path>
        </g>
    </g>
</svg>