<?xml version="1.0" encoding="UTF-8" standalone="no"?>
<svg width="61px" height="62px" viewBox="0 0 61 62" version="1.1" xmlns="http://www.w3.org/2000/svg" xmlns:xlink="http://www.w3.org/1999/xlink">
    <g id="next" stroke="none" stroke-width="1" fill="#FFFFFF" fill-rule="evenodd">
        <path d="M27.708,42.476 C27.016,42.476 26.326,42.219 25.793,41.695 C24.707,40.636 24.688,38.901 25.746,37.814 L32.943,30.44 L25.673,23.252 C24.593,22.186 24.584,20.448 25.651,19.37 C26.717,18.293 28.451,18.285 29.531,19.348 L38.739,28.454 C39.811,29.515 39.829,31.242 38.772,32.323 L29.67,41.649 C29.135,42.199 28.42,42.476 27.708,42.476 L27.708,42.476 Z" id="Shape"></path>
        <path d="M30.492,61.012 C13.679,61.012 0,47.328 0,30.513 C0,13.688 13.679,0 30.492,0 C47.304,0 60.984,13.688 60.984,30.513 C60.984,47.328 47.304,61.012 30.492,61.012 L30.492,61.012 Z M30.492,2.288 C14.94,2.288 2.286,14.95 2.286,30.513 C2.286,46.072 14.94,58.726 30.492,58.726 C46.044,58.726 58.697,46.072 58.697,30.513 C58.697,14.95 46.044,2.288 30.492,2.288 L30.492,2.288 Z" id="Shape"></path>
    </g>
</svg>