<?xml version="1.0" encoding="UTF-8" standalone="no"?>
<svg width="60px" height="60px" viewBox="0 0 60 60" version="1.1" xmlns="http://www.w3.org/2000/svg" xmlns:xlink="http://www.w3.org/1999/xlink">
    <!-- Generator: Sketch 3.6.1 (26313) - http://www.bohemiancoding.com/sketch -->
    <title>Slice 1</title>
    <desc>Created with Sketch.</desc>
    <defs></defs>
    <g id="Page-1" stroke="none" stroke-width="1" fill="none" fill-rule="evenodd">
        <g id="pause">
            <rect id="Rectangle-1" x="0" y="0" width="60" height="60"></rect>
            <path d="M21.9233863,45 C20.8605112,45 20,44.1385606 20,43.0775419 L20,16.9224581 C20,15.8605112 20.8605112,15 21.9233863,15 C22.9853333,15 23.8458444,15.8614394 23.8458444,16.9224581 L23.8458444,43.0766137 C23.8458444,44.1385606 22.9853333,45 21.9233863,45 L21.9233863,45 L21.9233863,45 Z" id="Shape" fill="#FFFFFF"></path>
            <path d="M38.9219936,45 C37.859888,45 37,44.1385606 37,43.0775419 L37,16.9224581 C37,15.8605112 37.8608156,15 38.9219936,15 C39.9831714,15 40.8430595,15.8614394 40.8430595,16.9224581 L40.8430595,43.0766137 C40.8430595,44.1385606 39.9831714,45 38.9219936,45 L38.9219936,45 L38.9219936,45 Z" id="Shape" fill="#FFFFFF"></path>
        </g>
    </g>
</svg>