<?xml version="1.0" encoding="UTF-8" standalone="no"?>
<svg width="125px" height="166px" viewBox="0 0 125 166" version="1.1" xmlns="http://www.w3.org/2000/svg" xmlns:xlink="http://www.w3.org/1999/xlink">
    <g id="interview" stroke="none" stroke-width="1" fill="none" fill-rule="evenodd">
        <g id="interview-content">
            <path d="M56.618,0 L67.595,0 C85.316,2.392 98.419,9.21 108.273,20.339 C117.544,30.81 125.394,45.79 124.091,65.213 C123.34,76.409 118.7,86.679 114.406,95.882 C110.005,105.309 105.55,113.294 100.201,121.707 C89.617,138.351 78.158,154.746 63.397,165.289 L60.814,165.289 C46.05,154.745 34.595,138.354 24.009,121.707 C18.592,113.187 14.197,105.103 9.804,95.56 C5.509,86.225 0.811,76.3 0.119,64.891 C-1.073,45.225 6.88,30.935 16.261,20.339 C26.084,9.243 38.815,2.24 56.618,0 L56.618,0 Z M32.300032,33.705616 C26.348032,40.085616 20.925032,50.036616 21.001032,62.438616 C21.167032,89.546616 45.857032,107.402616 70.398032,102.466616 C87.857032,98.955616 103.650032,84.943616 103.650032,62.114616 C103.650032,49.797616 97.843032,38.827616 91.058032,32.413616 C83.881032,25.627616 72.284032,20.133616 59.744032,21.113616 C46.742032,22.130616 38.788032,26.749616 32.300032,33.705616 L32.300032,33.705616 Z" id="marker" fill="#000000"></path>
            <ellipse id="oval" fill="#FFFFFF" cx="62.5" cy="62" rx="41.5" ry="41"></ellipse>
            <path d="M52.626,41.107 L73.876,62.107 L52.876,83.607" id="arrow" stroke="#000000" stroke-width="5"></path>
        </g>
    </g>
</svg>
