<?xml version="1.0" encoding="UTF-8" standalone="no"?>
<svg width="76px" height="76px" viewBox="0 0 76 76" version="1.1" xmlns="http://www.w3.org/2000/svg" xmlns:xlink="http://www.w3.org/1999/xlink">
    <!-- Generator: Sketch 3.6.1 (26313) - http://www.bohemiancoding.com/sketch -->
    <title>Slice 1</title>
    <desc>Created with Sketch.</desc>
    <defs></defs>
    <g id="rail" stroke="none" stroke-width="1" fill="none" fill-rule="evenodd">
        <g id="rail-content">
            <circle id="oval" fill="#FFFFFF" cx="38" cy="38" r="38"></circle>
            <path d="M30.994,18.097 L16.856,51.581" id="shape" fill="#FFFFFF"></path>
            <path d="M16.854,56.674 C16.323,56.674 15.784,56.57 15.264,56.351 C13.181,55.472 12.206,53.071 13.085,50.989 L27.222,17.506 C28.101,15.423 30.502,14.448 32.583,15.327 C34.666,16.206 35.641,18.607 34.762,20.689 L20.626,54.172 C19.966,55.735 18.45,56.674 16.854,56.674 L16.854,56.674 Z" id="shape" fill="#000000"></path>
            <path d="M45.006,19.097 L59.144,52.581" id="shape" fill="#FFFFFF"></path>
            <path d="M59.145,56.674 C57.549,56.674 56.033,55.735 55.374,54.172 L41.237,20.689 C40.357,18.607 41.333,16.207 43.415,15.327 C45.496,14.449 47.898,15.423 48.776,17.506 L62.914,50.989 C63.793,53.071 62.818,55.471 60.736,56.351 C60.216,56.57 59.676,56.674 59.145,56.674 L59.145,56.674 Z" id="shape" fill="#000000"></path>
            <path d="M47.963,30.224 L29.009,30.224 C26.749,30.224 24.917,28.392 24.917,26.132 C24.917,23.872 26.75,22.04 29.009,22.04 L47.964,22.04 C50.225,22.04 52.057,23.872 52.057,26.132 C52.057,28.392 50.224,30.224 47.963,30.224 L47.963,30.224 Z" id="shape" fill="#000000"></path>
            <path d="M52.075,40.799 L23.925,40.799 C21.665,40.799 19.833,38.966 19.833,36.707 C19.833,34.447 21.665,32.614 23.925,32.614 L52.075,32.614 C54.335,32.614 56.168,34.447 56.168,36.707 C56.167,38.967 54.334,40.799 52.075,40.799 L52.075,40.799 Z" id="shape" fill="#000000"></path>
            <path d="M56.167,51.96 L19.708,51.96 C17.448,51.96 15.616,50.128 15.616,47.868 C15.616,45.608 17.448,43.776 19.708,43.776 L56.167,43.776 C58.427,43.776 60.26,45.608 60.26,47.868 C60.26,50.128 58.427,51.96 56.167,51.96 L56.167,51.96 Z" id="shape" fill="#000000"></path>
        </g>
    </g>
</svg>