<?xml version="1.0" encoding="iso-8859-1"?>
<!DOCTYPE svg PUBLIC "-//W3C//DTD SVG 1.1//EN" "http://www.w3.org/Graphics/SVG/1.1/DTD/svg11.dtd">
<svg xmlns="http://www.w3.org/2000/svg" xmlns:xlink="http://www.w3.org/1999/xlink" version="1.1" id="Capa_1" x="0px" y="0px" width="512px" height="512px" viewBox="0 0 494.393 494.393" style="enable-background:new 0 0 494.393 494.393;" xml:space="preserve">
	<g>
		<path d="M422.098,214.453L262.342,83.739c-8.818-7.215-21.501-7.215-30.32,0L72.264,214.453    c-5.557,4.547-8.779,11.348-8.779,18.527v232.901c0,13.223,10.718,23.939,23.939,23.939h97.352V353.857    c0-9.696,7.86-17.557,17.556-17.557h89.7c9.695,0,17.555,7.859,17.555,17.557v135.965h97.354    c13.221,0,23.938-10.718,23.938-23.938V232.98C430.877,225.8,427.654,219,422.098,214.453z" fill="#ffffff"/>
		<path d="M494.32,197.802c-0.053-7.561-3.525-14.689-9.443-19.394l-203.6-161.821c-9.854-8-21.902-12.003-33.954-12.014    c-0.04,0-0.079-0.003-0.118-0.003c-0.115,0-0.229,0.006-0.345,0.007c-11.981,0.057-23.947,4.056-33.746,12.01L9.515,178.409    c-5.918,4.704-9.39,11.833-9.444,19.394c0,0.1-0.071,10.05-0.071,18.72c0,13.808,11.193,25,25,25c13.807,0,25-11.192,25-25    c0-2.127,0.004-4.325,0.011-6.43L231.906,65.522c0,0,7.29-5.441,15.29-5.441c8,0,15.16,5.337,15.16,5.337l182.025,144.675    c0.008,2.104,0.012,4.303,0.012,6.43c0,13.808,11.193,25,25,25s25-11.192,25-25C494.393,207.853,494.322,197.902,494.32,197.802z" fill="#ffffff"/>
	</g>
</svg>
