<?xml version="1.0" encoding="UTF-8" standalone="no"?>
<svg width="149px" height="193px" viewBox="0 0 149 193" version="1.1" xmlns="http://www.w3.org/2000/svg" xmlns:xlink="http://www.w3.org/1999/xlink">
    <!-- Generator: Sketch 3.6.1 (26313) - http://www.bohemiancoding.com/sketch -->
    <title>Slice 1</title>
    <desc>Created with Sketch.</desc>
    <defs></defs>
    <g id="canada" stroke="none" stroke-width="1" fill="none" fill-rule="evenodd">
        <g id="canada-content" transform="translate(1.000000, 1.000000)" stroke="#000000" stroke-width="0.5">
            <path d="M77.483,35.26 C75.627,35.648 75.368,34.439 74.253,34.085 C74.616,36.46 74.62,39.762 77.483,38.784 C77.433,37.972 77.934,37.776 78.364,38.197 C77.934,39.235 76.778,39.548 75.72,39.959 C75.834,41.118 76.669,41.556 77.189,42.308 C77.532,41.77 77.957,41.314 78.364,40.84 C78.429,41.069 78.61,41.181 78.951,41.133 C78.865,41.313 78.221,42.264 78.951,42.308 C79.495,41.691 79.391,40.884 80.42,41.427 C80.433,41.023 80.282,40.782 80.126,40.546 C80.686,41.096 80.864,40.578 81.595,40.546 C81.578,40.921 81.218,40.953 81.301,41.427 C82.119,42.145 83.046,40.712 83.651,41.427 C82.889,41.742 82.211,42.14 81.008,42.014 C81.138,43.854 83.991,41.968 84.531,42.601 C82.355,43.872 79.302,42.6 78.364,45.244 C78.565,46.315 80.218,45.935 80.42,47.006 C79.864,47.072 79.773,46.675 79.246,46.713 C79.026,47.617 80.052,47.277 79.833,48.181 C81.012,47.878 81.837,48.151 82.77,48.768 C81.664,48.542 81.366,49.126 80.42,49.061 C80.865,51.063 82.649,51.727 84.824,51.998 C84.985,51.572 84.481,50.48 85.119,50.53 C85.673,50.563 85.322,51.501 86,51.411 C86.233,50.088 84.831,48.877 85.412,48.181 C86.284,49.169 86.153,51.16 87.468,51.704 C87.983,50.668 87.699,49.287 87.468,48.181 C88.226,48.206 87.777,49.438 88.936,49.062 C89.084,47.609 87.429,45.606 88.936,44.657 L88.936,47.594 C90.34,45.474 91.955,43.563 93.929,42.014 C93.145,41.428 93.349,39.853 92.46,39.371 C92.433,39.832 92.5,40.389 91.873,40.252 C91.966,39.571 91.826,39.125 91.579,38.784 C90.605,38.519 90.306,40.415 89.817,39.665 C90.797,37.007 89.94,36.864 90.111,34.966 C89.382,35.009 88.686,35.021 88.642,34.379 C89.905,34.111 89.972,31.023 88.055,31.442 C87.106,32.701 88.007,33.328 88.349,34.673 C86.012,34.418 86.727,32.319 86.88,30.561 C85.581,30.685 84.821,30.27 84.236,29.68 C83.27,27.155 82.189,20.433 78.363,21.751 L78.363,22.926 C78.759,23.509 80.413,22.833 80.419,23.807 C79.864,23.84 80.215,24.778 79.538,24.688 C78.385,23.935 78.676,24.754 78.363,25.275 C77.562,25.489 77.772,24.692 77.188,24.688 C75.87,25.929 77.103,26.373 76.307,27.625 C77.322,27.589 77.691,28.199 78.363,28.506 C76.759,28.806 78.693,29.683 78.95,29.974 C77.56,30.092 76.929,29.45 75.427,29.681 C74.507,30.746 76.553,31.504 76.014,32.03 C75.673,31.783 75.227,31.643 74.546,31.737 C74.193,33.864 75.806,33.078 76.602,33.499 C76.244,33.533 75.907,33.587 76.014,34.086 C76.839,34.825 77.116,33.235 78.071,33.205 C78.069,33.499 78.308,33.555 78.364,33.792 C76.921,33.509 77.942,35.234 77.483,35.26 L77.483,35.26 Z" id="Shape"></path>
            <path d="M76.896,29.387 C77.268,28.232 76.204,28.513 75.428,28.506 C75.32,29.397 76.384,29.116 76.896,29.387 L76.896,29.387 Z" id="Shape"></path>
            <path d="M70.729,38.491 C71.21,37.337 70.649,35.703 70.435,34.379 C69.531,34.585 69.871,34.585 68.966,34.379 C68.721,35.014 68.205,35.381 68.379,36.435 C70.438,35.844 69.401,38.35 70.729,38.491 L70.729,38.491 Z" id="Shape"></path>
            <path d="M91.286,45.539 C92.162,45.338 93.083,45.183 93.341,44.364 C92.349,43.519 91.534,44.731 91.286,45.539 L91.286,45.539 Z" id="Shape"></path>
            <path d="M73.959,52.586 C73.447,52.608 73.046,52.521 72.784,52.293 C72.733,53.519 73.694,53.732 73.959,54.642 C74.513,53.531 76.617,53.972 77.189,52.88 C77.444,51.744 76.472,51.836 76.308,51.118 C76.823,50.849 77.329,50.572 77.189,49.65 C76.698,49.26 76.206,48.872 75.133,49.063 C74.991,47.922 73.84,46.33 71.61,46.42 C71.323,49.59 71.912,50.732 73.959,52.586 L73.959,52.586 Z" id="Shape"></path>
            <path d="M48.998,50.824 C49.94,51.082 49.606,50.063 50.173,49.943 C51.01,50.923 51.475,50.657 53.109,50.53 C53.418,48.167 52.158,47.371 50.76,46.713 C50.233,48.926 46.526,47.961 46.649,50.824 C47.227,50.792 48.793,49.362 48.998,50.824 L48.998,50.824 Z" id="Shape"></path>
            <path d="M51.641,56.992 C51.406,55.973 52.079,55.863 51.935,54.936 C51.414,54.869 50.464,55.232 50.76,54.349 C51.337,53.556 52.897,53.744 52.816,52.293 C49.925,52.068 49.004,52.994 46.649,53.761 C45.844,57.835 48.918,58.928 51.641,56.992 L51.641,56.992 Z" id="Shape"></path>
            <path d="M45.474,55.229 C46.456,53.959 44.901,53.198 44.299,52.586 C43.246,53.369 43.966,55.305 45.474,55.229 L45.474,55.229 Z" id="Shape"></path>
            <path d="M64.562,54.055 C64.299,55.893 66.36,55.624 67.206,54.936 C66.513,53.906 66.069,53.767 64.562,54.055 L64.562,54.055 Z" id="Shape"></path>
            <path d="M80.126,55.229 C77.572,54.872 73.9,54.409 75.428,57.285 C76.862,57.319 78.523,57.127 79.539,57.578 C79.18,56.241 80.345,56.426 80.126,55.229 L80.126,55.229 Z" id="Shape"></path>
            <path d="M61.038,59.928 C62.408,58.559 59.693,57.505 59.864,55.523 C59.307,55.589 59.216,55.192 58.689,55.23 C59.481,56.787 59.027,59.589 61.038,59.928 L61.038,59.928 Z" id="Shape"></path>
            <path d="M83.944,55.817 C82.55,57.094 83.934,59.148 85.412,59.341 C86.425,58.214 85.669,55.906 83.944,55.817 L83.944,55.817 Z" id="Shape"></path>
            <path d="M33.434,68.444 C34.013,68.24 33.362,66.805 34.021,66.682 C34.668,67.111 34.254,68.603 34.902,69.032 C36.787,68.488 35.431,66.636 36.077,65.508 C36.582,65.884 36.084,67.264 36.959,67.27 C36.767,66.222 38.258,65.307 36.959,64.333 C37.558,63.821 37.534,64.552 38.133,64.04 C38.199,63.484 37.803,63.392 37.84,62.865 C38.23,62.908 38.933,61.878 39.015,62.572 C38.456,63.574 38.434,66.176 39.895,66.096 C40.094,64.728 40.623,63.691 41.952,63.453 C42.273,62.153 41.454,61.993 41.364,61.103 C41.74,61.12 41.771,61.48 42.245,61.396 C42.404,60.356 41.205,60.674 41.364,59.634 C42.057,59.544 41.911,58.614 42.833,58.753 C42.584,57.706 41.669,56.17 40.484,56.991 C39.765,57.683 40.922,57.537 40.777,58.459 C39.672,59.093 39.534,58 38.427,57.872 C34.591,58.931 34.989,64.224 31.086,65.213 C30.288,68.169 30.941,68.016 33.434,68.444 L33.434,68.444 Z" id="Shape"></path>
            <path d="M83.944,75.786 C84.051,77.049 85.04,77.43 86.293,77.548 C87.111,76.858 86.221,75.77 88.056,75.786 C88.053,76.566 88.167,77.463 87.762,77.841 C89.499,77.782 90.804,78.489 91.873,77.254 C91.957,78.69 92.947,77.314 93.048,76.96 L93.048,77.841 C94.247,77.539 96.771,77.82 96.608,75.776 C97.004,78.309 99.266,77.7 101.565,77.255 C101.326,76.239 102.113,76.015 101.565,75.493 C102.131,76.064 103.362,75.8 103.033,74.612 C102.606,74.451 101.515,74.955 101.565,74.319 C102.325,73.904 102.964,73.37 102.739,71.969 C101.141,71.65 102.219,71.356 101.858,70.501 C101.034,70.078 99.985,71.044 100.096,69.327 C97.956,68.646 97.175,69.939 95.103,69.327 C94.698,70.879 92.083,70.222 91.874,71.97 C90.812,71.857 90.472,71.023 89.818,70.502 C90.099,71.566 88.55,70.801 88.35,71.383 C88.439,70.61 87.943,70.419 87.174,70.502 C86.894,71.049 88.055,71.483 87.174,71.677 C87.172,70.894 86.357,70.926 86,70.5 C86.789,70.702 86.567,69.893 86.881,69.619 C86.235,68.777 85.505,69.84 85.706,68.151 C84.999,68.374 84.284,68.384 83.65,67.858 C83.996,67.812 84.484,67.908 84.531,67.565 C84.278,67.203 82.64,66.752 83.356,66.39 C84.341,66.885 86.089,67.462 86.586,66.097 C85.774,65.147 83.662,65.496 83.062,64.335 C83.403,64.582 83.85,64.722 84.531,64.629 C84.039,62.331 82.071,63.72 80.126,63.748 C80.028,64.433 79.825,65.013 79.246,65.216 C79.394,64.288 80.109,63.927 80.126,62.866 C79.789,60.778 72.966,59.426 74.547,62.28 C74.042,62.263 73.794,62.506 73.666,62.866 C74.744,63.444 75.952,63.775 75.428,65.216 C76.152,65.352 77.443,65.556 76.603,66.391 C77.933,66.155 79.256,65.912 80.42,65.51 C83.112,69.203 79.725,74.607 83.357,76.963 C83.275,76.292 83.428,75.857 83.944,75.786 L83.944,75.786 Z" id="Shape"></path>
            <path d="M44.006,62.571 C44.695,62.664 45.108,63.035 46.062,62.864 C46.474,61.14 44.053,61.543 44.006,62.571 L44.006,62.571 Z" id="Shape"></path>
            <path d="M53.108,66.976 C53.419,68.264 52.116,67.94 52.228,69.032 C53.27,69.265 54.723,70.5 53.402,71.381 C52.692,70.819 51.043,71.195 49.879,71.088 C49.367,70.37 50.339,69.065 48.41,69.326 C49.79,68.154 47.339,67.535 47.235,66.096 C46.309,65.952 46.198,66.625 45.18,66.389 C45.218,65.665 45.224,64.974 44.886,64.627 C43.871,64.176 42.464,64.623 42.242,65.801 C42.328,66.694 43.796,66.206 44.005,66.976 C43.152,66.595 41.92,66.595 41.067,66.976 C41.28,67.873 40.768,68.046 40.774,68.738 C41.792,68.953 43.559,68.418 43.711,68.738 C42.914,69.41 41.106,69.069 40.188,69.619 L40.188,70.794 C41.716,71.33 42.575,69.677 43.417,70.5 C42.453,71.787 39.19,70.776 39.306,73.143 C40.022,73.699 41.049,73.953 41.657,73.143 C41.988,74.065 41.571,73.919 41.95,74.611 C43.066,75.043 42.009,73.299 43.125,73.73 C43.923,73.52 42.915,75.115 43.712,74.904 C44.824,74.352 44.678,72.542 45.474,71.674 C45.539,71.903 45.72,72.015 46.062,71.967 C45.727,72.612 45.304,73.167 45.474,74.317 C46.448,74.116 47.478,73.972 47.824,73.142 C48.352,74.305 49.485,73.225 50.467,73.142 C50.029,73.583 49.942,74.378 49.293,74.61 C46.949,74.421 46.38,76.004 44.594,76.372 C47.042,81.243 51.537,75.403 54.284,74.317 C55.542,75.102 57.079,75.175 58.69,74.317 C59.153,72.197 60.863,67.774 57.515,67.563 C56.779,68.457 58.086,69.566 56.927,69.912 C57.219,67.954 55.917,69.118 55.165,69.325 C55.426,68.803 55.985,68.578 55.752,67.563 C55.313,67.513 54.668,67.667 54.577,67.269 C55.457,65.654 54.262,63.488 53.99,61.983 C52.594,62.741 52.38,64.679 51.347,65.8 C51.842,66.285 52.667,66.439 53.108,66.976 L53.108,66.976 Z" id="Shape"></path>
            <path d="M85.119,61.984 C85.054,62.213 84.872,62.325 84.531,62.278 C84.616,63.367 84.863,64.295 85.706,64.627 C85.517,63.135 86.41,62.375 85.119,61.984 L85.119,61.984 Z" id="Shape"></path>
            <path d="M66.324,64.04 C67.033,64.041 68.201,63.012 67.499,62.572 C67.204,63.157 66.2,63.035 66.324,64.04 L66.324,64.04 Z" id="Shape"></path>
            <path d="M61.332,63.452 C60.432,64.387 61.828,64.681 61.625,65.801 C62.349,65.84 63.041,65.845 63.388,65.508 C63.285,64.24 62.6,63.554 61.332,63.452 L61.332,63.452 Z" id="Shape"></path>
            <path d="M70.142,64.92 C70.356,64.119 69.559,64.329 69.555,63.745 C68.29,63.656 67.185,63.724 67.206,64.92 C67.644,65.264 68.406,65.285 68.674,65.801 C68.669,66.286 67.859,65.966 67.792,66.388 C67.973,66.795 68.923,66.432 68.967,66.975 C68.144,67.268 68.938,68.333 69.261,68.443 C69.081,68.46 68.913,68.487 68.967,68.736 C67.323,67.933 67.596,65.214 65.443,64.919 C65.324,66.717 66.291,66.267 65.443,67.562 C66.442,67.64 66.361,68.798 66.618,69.617 C65.926,69.527 66.072,68.597 65.15,68.736 C65.472,69.57 63.646,70.215 64.563,71.379 C65.372,70.639 68.572,69.765 69.261,70.792 C68.14,71.179 68.497,71.524 67.792,72.554 C69.022,72.596 67.581,73.871 68.38,74.61 C70.151,74.658 70.438,74.363 71.904,74.61 C71.931,74.149 71.864,73.591 72.491,73.729 C72.244,72.997 72.106,72.155 72.197,71.086 C72.601,71.073 72.842,71.225 73.079,71.379 L73.079,69.911 C72.733,69.865 72.245,69.962 72.197,69.617 C73.636,68.592 72.196,66.092 72.491,64.331 C71.331,64.707 71.78,63.476 71.022,63.45 C70.351,63.562 70.631,64.627 70.142,64.92 L70.142,64.92 Z" id="Shape"></path>
            <path d="M36.664,70.794 C36.893,70.859 37.244,70.802 37.251,71.087 C38.577,70.742 39.449,68.399 39.014,67.269 C38.203,68.417 36.691,68.863 36.664,70.794 L36.664,70.794 Z" id="Shape"></path>
            <path d="M63.388,69.619 C64.446,69.6 64.763,68.841 65.15,68.151 C64.262,68.339 63.455,68.609 63.388,69.619 L63.388,69.619 Z" id="Shape"></path>
            <path d="M77.483,68.15 L77.483,69.618 C78.386,70.068 78.386,67.702 77.483,68.15 L77.483,68.15 Z" id="Shape"></path>
            <path d="M79.246,76.96 C80.261,74.927 79.472,71.546 77.777,70.5 C75.586,70.854 74.864,72.677 74.547,74.905 C75.923,74.955 76.743,77.162 79.246,76.96 L79.246,76.96 Z" id="Shape"></path>
            <path d="M61.038,74.318 C62.054,74.55 62.277,73.991 62.8,73.731 C62.6,72.855 62.445,71.933 61.625,71.675 C61.176,72.281 60.263,73.396 61.038,74.318 L61.038,74.318 Z" id="Shape"></path>
            <path d="M72.491,80.191 C71.505,80.575 70.251,80.692 69.847,81.659 C70.887,82.334 72.666,81.663 72.491,80.191 L72.491,80.191 Z" id="Shape"></path>
            <path d="M57.221,83.127 C57.765,84.834 58.988,85.864 59.865,87.238 C62.461,85.006 60.73,80.501 57.221,83.127 L57.221,83.127 Z" id="Shape"></path>
            <path d="M102.738,88.12 C104.863,87.62 106.081,86.93 108.318,87.826 C108.553,83.891 104.59,82.807 100.976,82.247 C100.455,82.802 100.762,84.185 100.682,85.183 C102.891,84.639 101.62,87.574 102.738,88.12 L102.738,88.12 Z" id="Shape"></path>
            <path d="M69.555,106.915 C69.595,107.462 69.748,107.896 70.142,108.09 C71.096,107.125 72.441,109.865 74.841,109.852 C75.098,108.935 76.226,108.888 76.603,108.09 C74.618,106.846 74.148,104.084 71.905,103.098 C71.537,105.148 71.853,106.004 69.555,106.915 L69.555,106.915 Z" id="Shape"></path>
            <path d="M107.731,105.446 L106.556,105.446 C106.473,106.116 106.626,106.55 107.143,106.621 C107.147,106.038 107.945,106.248 107.731,105.446 L107.731,105.446 Z" id="Shape"></path>
            <path d="M103.619,108.089 C104.028,107.225 105.054,106.978 105.088,105.739 C104.124,105.866 102.976,107.331 103.619,108.089 L103.619,108.089 Z" id="Shape"></path>
            <path d="M68.086,108.969 C68.516,108.323 68.979,107.708 68.967,106.62 C67.885,106.559 66.864,108.538 68.086,108.969 L68.086,108.969 Z" id="Shape"></path>
            <path d="M107.437,115.431 C108.579,115.202 109.673,114.926 110.374,114.256 C110.489,112.637 110.057,112.216 110.374,111.026 C107.563,108.86 105.584,113.59 107.437,115.431 L107.437,115.431 Z" id="Shape"></path>
            <path d="M113.017,112.201 C112.67,111.667 111.486,111.97 110.961,111.613 C110.289,112.966 113.074,113.343 113.017,112.201 L113.017,112.201 Z" id="Shape"></path>
            <path d="M101.564,129.233 C100.781,128.466 100.259,127.889 98.92,128.352 C99.995,125.086 95.796,124.65 94.516,122.773 C94.454,123.101 94.19,123.229 93.928,123.36 C93.351,122.813 93.241,121.242 94.222,121.891 C94.265,121.162 94.277,120.466 93.634,120.423 C93.89,122.118 92.658,120.504 92.165,121.304 C92.221,123.563 91.044,125.988 91.872,128.058 C90.991,128.351 90.403,128.939 90.11,129.82 C90.931,129.98 91.439,129.69 92.753,129.527 L92.753,131.582 C95.47,131.559 95.039,128.387 97.158,127.765 C96.938,128.985 100.542,131.743 101.564,129.233 L101.564,129.233 Z" id="Shape"></path>
            <path d="M105.675,131.876 C105.74,131.647 105.921,131.534 106.263,131.581 C106.659,130.477 104.908,130.032 104.501,130.701 C105.255,130.73 104.921,131.847 105.675,131.876 L105.675,131.876 Z" id="Shape"></path>
            <path d="M95.69,134.813 C96.113,135.462 96.407,134.443 96.571,135.107 C97.881,134.752 98.363,133.569 98.921,132.463 C97.699,132.029 95.401,132.786 95.69,134.813 L95.69,134.813 Z" id="Shape"></path>
            <path d="M102.151,134.518 C101.395,135.311 101.524,136.857 102.738,137.162 C102.783,136.228 103.404,135.87 103.326,134.813 C102.929,134.72 102.765,134.395 102.151,134.518 L102.151,134.518 Z" id="Shape"></path>
            <path d="M100.977,164.472 C100.658,163.884 99.427,162.522 98.921,163.885 C99.384,164.131 100.559,165.154 100.977,164.472 L100.977,164.472 Z" id="Shape"></path>
            <path d="M132.398,173.871 C131.596,173.1 129.738,171.843 128.287,172.696 C129.339,173.089 131.614,175.14 132.398,173.871 L132.398,173.871 Z" id="Shape"></path>
            <path d="M99.215,182.974 C99.588,181.986 97.726,181.759 97.452,182.386 C98.066,182.555 98.291,183.115 99.215,182.974 L99.215,182.974 Z" id="Shape"></path>
            <path id="Shape" d="M82.702,18.986 C82.698,18.993 82.717,19.028 82.769,19.108 C82.743,19.07 82.722,19.028 82.702,18.986 L82.702,18.986 Z"></path>
            <path d="M83.356,19.696 C84.067,19.134 83.808,17.602 85.119,17.64 C84.662,18.684 86.116,17.818 86,18.521 C85.363,19.181 83.695,19.964 84.237,20.87 C85.862,21.642 87.452,17.568 89.524,19.696 C87.858,18.978 86.776,20.677 85.706,21.458 C85.487,22.362 86.512,22.022 86.293,22.926 C85.432,22.591 85.202,22.753 84.824,23.513 C85.434,23.588 84.905,24.803 85.412,24.981 C89.691,25.525 91.521,22.856 94.223,22.338 C92.181,24.673 89.952,25.625 86.293,25.862 C86.924,27.581 88.221,28.634 90.111,29.092 C90.57,25.341 94.61,23.609 98.04,23.806 C94.584,24.478 90.382,25.914 91.286,29.973 C92.573,28.961 93.662,31.046 95.69,29.973 C96.157,28.934 95.171,28.146 96.278,27.623 C96.301,29.933 98.379,26.598 98.921,27.623 C98.616,28.788 96.445,28.085 96.865,29.973 C99.733,29.125 101.924,28.819 103.032,27.036 C103.556,26.193 103.144,24.658 103.619,23.806 C103.549,23.934 104.075,24.296 104.206,24.1 C104.811,23.199 105.448,20.765 107.144,20.87 C105.627,22.389 104.193,23.988 103.914,26.743 C105.386,26.454 107.008,25.763 108.025,27.037 C105.473,27.225 103.302,27.796 102.152,29.387 C103.045,29.571 104.681,29.011 105.089,29.68 C101.855,29.97 99.861,31.501 96.866,32.029 C97.414,33.733 98.141,35.257 99.509,36.141 C98.782,36.424 99.914,37.268 99.509,38.196 C100.486,38.801 101.425,38.865 102.446,38.196 C101.897,39.475 100.724,39.36 99.217,39.077 C98.586,36.477 96.878,34.955 95.693,32.91 C93.769,33.268 93.069,32.403 91.582,32.323 C90.897,33.36 91.107,34.154 91.289,35.553 C92.334,35.487 93.048,35.751 93.344,36.434 C92.471,36.449 91.855,35.57 91.289,36.141 L91.289,37.609 C94.656,38.255 94.322,42.601 96.574,44.363 C95.117,44.842 95.638,43.342 94.519,43.482 C93.65,45.94 99.3,45.498 99.51,44.657 C99.642,46.257 97.885,45.968 96.867,46.419 C97.472,46.616 98.649,47.743 98.042,48.181 C97.007,46.768 95.284,46.044 93.343,45.538 C92.845,46.117 91.978,46.326 90.994,46.419 C89.797,48.005 89.718,50.962 89.526,51.999 C91.176,52.28 91.427,51.161 92.168,50.531 C92.361,51.605 91.533,51.657 91.581,52.587 C93.556,52.792 93.69,50.283 93.931,49.65 C94.29,51.343 93.797,52.714 92.756,53.761 C93.104,54.485 93.865,53.16 94.225,54.055 C92.698,54.016 93.838,54.823 93.343,55.817 C94.658,56.183 94.152,55.677 94.519,56.992 L95.987,56.992 C96.732,55.779 97.116,54.205 97.749,52.88 C97.507,56.145 96.28,57.594 94.226,58.46 C93.731,57.977 92.906,57.822 92.463,57.286 C92.611,54.552 89.805,52.784 88.353,54.937 C88.736,55.924 89.44,56.589 89.233,58.167 C89.903,58.57 90.337,57.41 90.408,58.167 C89.635,58.913 90.464,59.356 90.996,59.635 C90.439,60.156 89.057,59.849 88.059,59.928 C87.97,61.014 86.811,61.03 86.296,61.691 C86.911,63.052 85.174,64.487 87.177,64.921 C87.781,64.84 87.453,63.827 88.059,63.746 C88.29,64.743 87.803,65.564 89.528,65.508 C89.687,65.081 89.184,63.99 89.821,64.04 C89.744,64.998 90.17,65.453 90.996,65.508 C90.914,64.839 91.067,64.404 91.583,64.333 C91.056,66.047 93.74,66.077 94.521,65.508 C94.091,65.252 93.382,65.275 93.639,64.333 C94.429,65.327 95.053,64.669 95.401,63.746 C95.69,65.579 96.71,64.892 98.338,65.214 C98.389,64.775 98.234,64.131 98.633,64.04 C98.974,65.207 100.453,63.715 100.688,65.214 C100.901,66.112 100.181,66.078 100.395,66.976 C102.184,66.514 103.69,65.768 104.211,64.039 C104.675,64.065 104.441,64.788 105.093,64.626 C105.455,63.058 106.359,62.29 105.387,60.808 C104.284,60.587 104.746,61.93 103.918,61.983 C104.006,61.406 103.522,61.4 103.331,61.102 C103.687,60.082 104.042,59.987 103.331,59.046 C102.194,58.791 102.286,59.763 101.569,59.927 C102.284,59.238 101.241,59.27 100.981,58.753 C99.908,58.503 99.408,60.106 98.925,58.753 C99.105,58.346 100.056,58.709 100.1,58.166 C99.668,58.165 98.624,57.349 99.512,56.992 C101.665,60.534 107.927,57.763 104.799,53.468 C106.255,53.668 108.032,53.396 109.203,53.174 C109.181,52.663 109.268,52.26 109.497,51.999 C108.602,51.914 107.492,52.046 107.44,51.118 C108.839,51.244 110.001,51.132 110.377,50.237 C109.931,49.412 108.732,49.338 108.028,48.769 C110.002,49.745 110.929,47.319 111.552,47.007 C110.713,46.474 110.352,45.466 108.614,45.833 C108.778,45.234 109.498,45.257 108.908,44.658 C106.857,44.467 105.532,45.001 105.091,46.42 C105.285,45.381 105.729,44.593 105.678,44.07 C106.345,45.028 107.623,43.144 108.322,44.07 C108.222,42.8 105.997,43.654 105.385,42.896 C106.831,43.114 109.395,42.215 109.202,44.07 C110.086,44.049 111.334,45.159 111.552,44.07 C111.116,43.821 110.92,43.331 110.964,42.602 C108.741,42.622 107.621,42.246 106.266,42.015 C107.285,41.737 106.076,41.067 106.853,40.547 C106.931,41.545 108.089,41.464 108.909,41.721 C109.026,40.332 107.304,40.782 106.853,39.959 C108.995,39.482 108.53,41.611 110.671,41.133 C110.921,40.075 112.327,40.481 113.608,39.959 C113.778,39.005 113.408,38.593 113.314,37.903 C112.441,37.602 110.966,37.901 110.671,37.022 C111.611,36.229 112.618,37.248 113.901,37.022 C113.349,37.582 114.075,37.553 113.901,38.49 C115.504,39.113 118.035,37.398 116.544,35.846 C117.612,36.034 117.697,35.239 117.718,34.378 C116.628,34.186 115.701,35.667 114.781,34.672 C116.414,34.749 114.169,33.532 115.076,33.497 C115.101,33.96 115.825,33.727 115.663,34.378 C116.841,33.956 117.629,33.418 118.6,33.497 C118.7,32.404 117.27,31.322 118.012,30.56 C117.893,31.268 118.548,31.198 118.306,32.028 C120.678,30.973 121.368,28.238 122.711,26.154 C124.357,26.039 124.518,24.438 125.06,23.217 C126.706,22.71 127.837,21.687 127.997,19.694 C124.434,20.34 121.324,23.003 118.893,23.805 C120.263,22.043 122.998,21.645 124.18,19.694 C123.459,18.746 121.711,20.161 121.243,19.4 C122.465,18.762 124.164,18.602 125.941,18.519 C125.17,17.258 127.128,17.26 127.996,17.638 C129.989,15.461 136.83,10.208 131.226,7.654 C130.454,7.567 130.995,8.793 130.052,8.535 C130.703,6.353 128.739,5.866 129.464,3.837 C128.328,3.582 128.419,4.554 127.702,4.718 C127.433,4.203 127.601,3.253 127.115,2.956 C125.47,4.108 123.735,6.228 121.242,6.48 C122.162,4.955 124.525,4.871 124.765,2.663 C122.365,1.855 119.244,2.876 119.479,0.313 C118.059,0.067 117.403,0.586 116.542,0.901 C116.221,2.201 117.039,2.361 117.129,3.25 C115.993,2.558 115.575,1.918 115.954,0.313 C115.266,0.407 114.851,0.777 113.899,0.606 C111.941,2.582 113.56,3.903 114.486,5.892 C112.399,3.851 111.287,-0.675 106.557,0.9 C107.089,3.402 108.418,5.108 109.494,7.067 C107.422,7.553 107.208,1.681 104.86,3.21 C105.132,2.966 105.112,1.881 104.796,2.663 C104.357,2.82 104.449,2.955 103.62,3.25 L103.62,2.369 C102.566,2.196 102.2,2.71 101.565,2.956 C101.623,4.089 102.949,3.746 102.152,5.012 C102.794,5.446 103.733,5.585 104.207,6.187 C103.08,5.984 102.481,5.246 102.152,6.48 C101.755,5.312 101.876,3.625 99.802,4.131 C99.805,5.507 101.375,6.853 100.977,7.655 C99.895,7.366 99.926,5.965 98.333,6.187 C97.912,7.685 99.232,7.442 99.508,8.242 C98.372,8.116 98.463,7.921 97.746,8.536 C97.335,11.594 101.04,12.09 100.976,13.822 C99.2,13.347 98.935,11.36 97.159,10.885 C97.225,12.286 98.05,12.93 98.921,13.528 C97.929,13.188 97.668,13.736 97.159,13.235 C98.215,11.119 93.687,9.482 94.516,8.536 C93.344,8.375 93.631,8.375 92.459,8.536 C92.533,9.539 93.201,9.947 93.047,11.179 C92.344,11.357 91.707,11.601 90.697,11.473 C90.715,13.805 93.887,12.982 94.515,14.703 C93.368,13.786 94.461,15.663 93.927,15.584 C93.627,15.198 93.64,14.502 93.339,14.116 C92.762,14.028 92.757,14.512 92.458,14.703 C92.09,13.233 90.783,13.471 90.109,14.41 C90.13,13.898 90.044,13.496 89.815,13.235 C86.949,12.522 87.124,14.851 86.291,16.172 C84.664,14.165 81.974,17.48 82.7,18.986 C82.718,18.952 83.314,19.677 83.356,19.696 L83.356,19.696 Z" id="Shape"></path>
            <path d="M61.038,44.658 C60.869,44.836 60.351,46.051 61.038,46.126 C61.477,45.781 61.384,44.906 62.213,44.951 C62.538,45.873 62.351,45.727 61.919,46.419 C62.466,46.459 62.9,46.612 63.094,47.006 C62.515,47.871 61.971,47.58 63.094,48.181 C63.11,48.686 62.867,48.933 62.507,49.062 C61.581,49.204 61.842,48.161 60.744,48.475 C60.092,49.343 60.83,50.781 61.919,50.824 C62.847,50.676 63.209,49.96 64.269,49.943 C64.124,51.426 66.588,50.625 66.032,51.705 C67.979,50.778 67.484,56.826 70.436,54.055 C71.044,51.91 67.885,50.48 69.555,48.181 C68.484,47.979 68.804,46.386 67.792,46.125 C67.672,46.494 67.413,46.725 66.911,46.712 C66.271,46.098 67.057,45.874 66.911,44.95 C66.194,44.786 66.286,43.814 65.149,44.069 C64.642,44.248 65.171,45.462 64.562,45.538 C64.322,42.361 62.821,40.788 59.57,42.014 C59.392,42.718 59.147,43.354 59.275,44.364 C60.009,44.928 60.483,43.916 61.038,44.658 L61.038,44.658 Z" id="Shape"></path>
            <path d="M103.619,66.976 C103.621,67.955 102.664,67.978 102.738,69.032 C103.473,68.657 103.657,69.181 103.913,68.738 C102.864,68.49 104.668,67.224 103.619,66.976 L103.619,66.976 Z" id="Shape"></path>
            <path d="M74.253,72.262 C74.419,71.289 74.505,70.983 75.428,71.381 C75.425,69.778 74.043,71.138 73.666,71.675 C74.054,71.678 73.934,72.189 74.253,72.262 L74.253,72.262 Z" id="Shape"></path>
            <path d="M138.272,168.584 C140.562,167.25 142.236,167.743 142.676,165.646 C142.865,164.746 141.738,163.687 142.383,162.709 C141.335,162.067 140.891,161.636 139.739,162.416 C141.072,161.373 139.439,160.831 138.858,160.066 C139.131,159.753 139.942,159.975 139.739,159.185 C138.107,158.309 134.433,158.453 135.041,155.955 C133.188,156.045 132.758,154.714 132.104,153.605 C132.703,154.195 132.68,153.475 133.279,153.312 C133.213,151.91 132.139,151.514 131.516,150.668 C132.043,150.706 132.203,150.377 132.104,149.787 C131.755,149.157 130.832,149.101 130.342,148.612 C130.71,148.492 130.942,148.233 130.929,147.731 C130.373,147.665 130.281,148.062 129.754,148.024 C129.845,147.332 130.775,147.478 130.635,146.556 C129.162,145.484 128.458,143.643 127.991,141.564 C126.21,143.319 126.486,145.046 125.642,147.144 C125.223,147.074 125.147,146.66 124.761,146.556 C124.448,147.712 123.612,148.343 122.411,148.612 C122.291,147.46 121.378,147.099 120.942,146.262 C119.736,145.964 119.126,147.946 118.593,146.556 C119.015,145.681 119.332,146.537 120.062,145.969 C118.596,143.748 119.482,141.693 119.474,139.215 C116.622,140.525 115.024,135.691 113.013,134.222 C110.715,135.826 108.473,134.199 105.965,133.635 C103.962,135.63 107.051,137.952 105.378,140.096 C107.474,142.223 105.687,144.947 104.497,146.85 C107.188,148.269 107.553,152.016 108.901,154.779 C106.775,155.349 105.375,158.514 102.734,159.477 C104.07,161.916 104.731,165.87 103.909,168.288 C103.05,167.423 102.719,168.588 102.147,168.875 C99.241,166.211 97.651,163.034 98.329,158.01 C90.642,158.805 88.649,150.303 81.004,152.137 C81.87,150.303 80.072,148.824 80.122,146.851 C78.609,146.994 77.605,146.627 77.185,145.676 C76.764,142.406 78.159,140.022 79.535,137.159 C79.726,136.761 79.348,136.093 79.535,135.691 C80.249,134.155 83.101,133.782 81.591,132.753 C82.914,132.805 84.279,132.897 84.234,131.578 C83.884,130.151 82.332,129.774 81.591,129.523 C82.892,128.58 83.544,130.82 85.115,129.816 C85.63,129.06 84.81,128.405 85.996,128.054 C88.794,129.045 89.735,125.759 90.4,123.649 C89.879,123.584 88.929,123.946 89.225,123.062 C91.122,122.904 91.298,121.023 92.162,119.833 C91.757,119.357 90.766,119.467 90.988,118.364 C92.934,118.842 93.111,117.551 93.631,116.601 C96.588,116.852 99.548,117.779 100.092,114.545 C99.25,113.185 97.903,110.929 98.036,109.554 C98.96,110.005 99.841,109.655 100.092,108.672 C98.762,107.571 100.08,107.378 99.798,106.323 C98.444,106.211 97.339,105.286 97.742,104.266 C95.727,104.367 95.026,102.789 93.044,103.679 C92.871,105.419 93.063,106.793 94.219,107.202 C93.972,107.544 93.831,107.99 93.925,108.671 C93.123,108.698 93.334,108.182 92.75,108.671 C92.488,110.269 92.629,112.269 91.282,112.782 C91.504,112.076 91.514,111.36 90.988,110.727 C89.763,111.68 91.413,112.687 91.282,114.25 C90.644,114.493 90.629,115.358 89.813,115.425 C89.266,114.287 86.846,110.855 88.931,110.727 C89.288,108.118 87.727,107.428 86.876,106.027 C85.466,106.869 86.334,109.989 84.819,110.727 C84.712,108.101 83.773,106.506 84.526,104.853 C84.064,104.825 83.508,104.892 83.645,104.265 C82.741,104.047 83.081,105.071 82.177,104.853 C80.449,104.134 81.533,103.38 82.177,102.21 C81.714,102.181 81.157,102.249 81.295,101.622 C81.98,101.711 82.56,102.249 82.764,101.328 C80.36,100.186 80.337,95.17 79.241,93.692 C78.317,93.545 78.04,94.384 77.772,93.399 C77.775,92.019 79.184,91.364 79.534,89.582 C79.478,88.755 78.576,88.778 78.359,88.113 C79.588,87.76 80.638,87.807 81.589,88.407 C82.94,86.331 83.898,83.863 84.818,81.359 C83.82,81.02 82.743,80.434 81.589,81.066 C81.025,79.014 77.544,80.132 76.597,81.066 C76.673,81.968 77.234,82.386 77.478,83.121 C76.795,82.993 76.692,81.825 76.009,82.534 C75.005,87.224 78.565,91.373 75.715,94.281 C75.497,95.183 76.522,94.844 76.303,95.749 C75.33,95.244 75.029,95.925 74.541,96.63 C75.101,97.287 73.911,99.302 75.422,99.567 C72.703,102.479 77.435,105.226 79.533,105.147 C79.615,105.816 79.463,106.251 78.945,106.322 C78.913,105.964 78.858,105.627 78.358,105.734 C78.738,107.19 77.647,107.176 77.771,108.378 C79.104,108.927 78.17,107.211 79.24,107.496 C79.757,109.036 78.893,111.579 76.302,111.607 C75.537,113.257 77.299,114.139 76.302,115.718 C74.47,115.178 74.908,112.822 75.421,111.02 C73.759,112.231 74.534,109.88 72.484,109.552 C71.241,110.44 71.314,111.771 71.015,112.781 C68.879,112.536 64.126,114.084 63.086,111.606 C62.395,111.599 62.221,112.113 61.324,111.9 C60.444,110.528 59.531,109.189 58.681,107.789 C57.281,108.739 54.66,108.468 54.275,110.432 C54.953,110.343 54.602,111.281 55.157,111.314 C55.501,110.524 57.178,110.025 57.8,110.432 C57.44,109.457 58.829,108.759 58.975,109.258 C59.187,110.345 57.181,111.507 55.745,111.901 C55.398,113.195 55.952,115.423 56.627,116.599 L55.745,116.599 C55.176,117.876 57.026,118.225 56.332,118.656 C55.641,117.879 55.167,116.884 54.57,116.012 L55.451,116.012 C55.425,114.31 54.227,113.987 53.69,114.25 C53.599,112.872 52.089,112.913 51.633,111.9 C49.826,113.494 44.778,114.041 42.823,112.194 C43.788,111.282 43.468,110.896 45.173,110.726 C45.356,108.976 43.974,108.792 43.41,107.788 C37.394,108.986 35.893,103.714 30.195,103.677 C30.523,105.191 28.912,106.294 27.845,105.439 C28.615,104.42 27.854,103.37 27.551,101.916 C27.31,102.771 25.691,104.569 26.671,105.439 C23.389,106.435 24.453,100.634 21.678,100.154 C21.367,101.247 22.297,101.102 22.559,101.622 C20.802,101.529 21.688,104.079 19.916,103.972 C19.177,102.571 17.561,105.052 16.979,105.734 C15.394,104.294 15.061,107.816 13.749,106.615 C15.163,104.7 18.237,104.447 19.329,102.211 C18.16,102.425 18.149,102.425 16.979,102.211 C15.519,103.589 14.028,104.937 11.987,105.734 C12.531,104.706 11.722,104.809 11.106,104.265 C11.167,105.99 8.531,105.019 8.757,106.909 C8.76,107.393 9.571,107.073 9.637,107.496 C8.607,107.576 10.168,108.797 9.343,108.671 C5.462,108.147 4.583,104.621 0.24,104.56 L0.24,141.562 C1.778,141.923 1.499,141.974 3.469,141.562 C3.048,143.413 6.018,144.255 6.406,146.26 C7.497,145.393 7.966,143.904 9.343,143.323 C10.434,145.104 11.85,146.082 12.866,147.728 C13.813,149.259 14.226,150.952 14.923,152.72 C15.485,154.148 17.807,153.892 18.447,155.363 C19.357,157.461 17.35,159.324 18.08,161.346 C18.113,161.406 18.14,161.469 18.153,161.53 C18.126,161.469 18.101,161.408 18.08,161.346 C17.936,161.093 17.65,160.904 17.566,161.236 C18.483,161.436 18.059,162.131 17.566,162.412 C18.165,162.498 18.141,163.206 18.74,163.293 C18.929,162.375 19.199,163.58 20.208,162.705 C19.756,165.837 23.124,166.851 22.852,169.46 C24.169,169.693 24.665,170.295 25.496,170.341 C23.854,171.455 23.08,169.527 21.384,169.753 C23.624,172.612 25.766,175.472 29.608,175.92 C29.634,173.735 26.048,173.612 26.965,171.516 C27.733,172.803 29.761,172.83 30.194,174.453 L76.593,174.453 C76.736,174.106 76.906,173.787 77.18,173.571 C78.037,173.833 78.194,173.946 78.648,173.278 C78.752,174.631 78.148,174.106 77.474,175.04 C78.608,175.489 79.998,176.017 79.824,174.746 C81.399,176.863 83.251,176.593 86.284,177.097 C87.8,174.909 87.876,174.794 91.277,175.04 C91.831,176.053 91.813,177.635 93.92,177.097 C94.016,179.055 94.627,180.501 95.682,181.501 C98.315,180.713 104.114,183.057 101.556,185.612 C100.742,185.432 99.889,183.774 99.499,184.143 C100.255,185.973 98.607,189.703 96.856,190.898 C99.208,190.717 101.266,189.621 103.904,188.842 C103.53,188.433 102.466,188.714 102.435,187.961 C107.121,186.912 109.409,183.89 116.238,184.437 C116.662,183.354 117.427,183.699 118.294,182.675 C118.41,180.736 119.095,179.364 120.35,178.564 C120.785,179.811 121.486,178.095 122.406,178.858 C121.074,184.402 125.492,185.038 127.985,182.381 C128.374,183.116 126.825,183.3 127.692,183.556 C127.64,183.077 129.613,182.963 129.16,183.849 C126.838,183.825 124.655,185.35 125.637,187.667 C127.456,187.725 127.76,186.267 128.574,185.317 C130.336,184.805 134.275,184.414 133.273,182.968 C134.541,183.159 134.919,182.46 135.622,182.086 C135.441,181.19 134.304,181.251 134.741,179.737 C133.295,180.151 133.596,182.312 132.391,182.967 C130.002,183.104 127.169,181.044 126.811,179.149 C127.076,178.629 127.521,178.293 127.693,177.681 C126.279,178.139 124.912,177.563 125.343,176.505 C126.606,177.515 127.981,176.321 128.573,175.037 C124.113,171.887 119.9,177.472 117.12,179.736 C119.333,177.838 119.842,174.234 123.287,173.568 C123.602,172.513 124.048,171.589 125.049,171.219 C128.047,170.226 132.464,172.666 135.621,171.219 C136.738,170.718 137.235,169.188 138.272,168.584 L138.272,168.584 Z" id="Shape"></path>
            <path d="M73.666,88.708 C73.672,88.016 73.159,87.843 73.372,86.946 C72.54,86.64 72.148,86.64 71.316,86.946 C71.774,85.936 72.203,84.896 73.372,84.597 C73.734,83.647 72.422,84.372 72.784,83.423 C73.519,83.471 73.704,82.971 73.959,82.542 C73.73,82.477 73.618,82.295 73.666,81.955 C72.38,81.033 71.292,82.396 70.142,82.542 C69.582,82.393 69.028,80.75 68.38,81.66 C68.609,81.725 68.722,81.907 68.674,82.248 C68.121,81.564 67.314,81.679 66.911,82.541 C67.254,82.981 67.759,83.259 67.792,84.009 C67.11,83.88 67.007,82.713 66.324,83.423 C66.107,85.994 68.321,84.253 68.674,85.184 C67.577,85.127 67.828,86.387 68.674,87.24 C67.845,87.293 68.308,88.636 67.206,88.415 C65.881,88.27 66.32,86.364 64.856,86.358 C62.81,91.011 70.188,90.895 69.847,95.756 C71.141,96.138 71.051,95.739 71.904,95.168 C72.069,94.388 70.695,93.674 71.61,93.113 C71.409,94.096 72.102,94.186 72.784,94.288 C75.204,93.663 75.114,86.472 73.666,88.708 L73.666,88.708 Z" id="Shape"></path>
            <path d="M133.28,118.074 C133.034,117.144 132.423,116.582 131.811,116.018 C131.304,117.194 130.075,115.83 129.755,117.193 C129.383,116.207 130.904,115.64 130.049,115.137 C129.925,115.796 128.49,115.145 128.286,115.724 C128.257,115.395 128.714,115.267 128.286,115.137 C128.283,115.433 127.771,115.506 127.699,115.137 C127.879,114.73 128.829,115.093 128.874,114.549 C128.736,112.66 126.592,113.472 127.405,111.906 C126.313,111.596 126.83,112.896 126.23,113.081 C126.222,111.796 124.583,112.081 123.88,111.612 C124.868,110.685 121.996,110.591 123.587,109.85 C122.855,109.299 121.248,109.45 120.943,109.263 C122.223,108.556 120.512,108.671 120.063,108.088 L121.825,108.088 C121.611,107.286 122.408,107.497 122.412,106.913 C121.541,106.163 120.964,107.398 120.649,106.913 C121.752,105.473 122.802,106.599 124.174,106.619 C124.594,104.339 121.279,105.793 120.943,104.269 C121.962,104.054 122.507,103.368 123.587,103.976 C123.471,102.526 122.786,101.644 121.825,101.039 C122.064,102.754 120.062,103.768 119.181,103.389 C120.13,103.163 120.718,102.576 120.943,101.626 C119.341,101.199 119.526,102.559 118.594,102.801 C118.802,101.052 121.276,101.567 121.531,99.864 C121.089,99.328 120.264,99.174 119.769,98.689 C119.565,99.269 118.986,99.471 118.3,99.57 C118.387,98.971 119.095,98.994 119.181,98.395 C117.826,98.508 117.369,99.52 116.832,100.451 C116.879,98.809 115.949,101.043 115.95,100.158 C116.704,99.345 118.142,99.217 117.712,97.221 C116.459,97.337 116.747,98.996 115.07,98.689 C115.07,98.394 114.831,98.339 114.775,98.101 C115.337,96.846 116.022,97.332 116.832,96.633 C116.817,95.081 115.579,94.754 114.482,94.284 C114.446,95.371 114.054,95.021 113.307,94.87 C112.904,95.54 114.064,95.975 113.307,96.046 C112.22,95.868 112.979,94.189 111.838,95.458 C112.263,95.002 112.456,94.313 112.719,93.695 C111.825,93.683 111.577,94.316 110.957,94.577 C110.809,95.5 111.649,95.776 110.664,96.046 C110.741,95.338 111.158,93.83 110.369,93.989 C111.028,93.472 112.18,93.45 111.838,91.934 C111.157,92.027 110.711,91.887 110.369,91.64 C109.886,92.135 109.731,92.959 109.195,93.402 C109.457,92.131 111.647,89.825 109.195,89.291 C108.806,89.295 108.926,89.806 108.607,89.878 C108.556,88.657 107.326,88.615 106.552,88.116 C105.657,88.103 105.409,88.736 104.79,88.996 C104.273,90.035 105.775,90.509 105.083,90.759 C104.348,91.146 104.163,89.598 103.908,90.465 C104.192,91.257 104.922,91.605 105.083,92.521 C104.518,92.402 104.851,91.382 103.908,91.64 C103.52,92.375 105.07,92.559 104.201,92.815 C102.929,92.355 104.59,90.538 103.027,90.171 C102.929,91.609 102.725,89.726 102.146,89.878 C101.794,90.769 101.866,92.121 100.677,92.815 C100.743,92.259 100.346,92.168 100.384,91.64 C101.152,91.761 100.894,90.082 100.971,89.585 C100.888,90.117 100.306,89.977 100.384,89.878 C102.022,87.807 100.689,86.036 99.502,82.537 C97.537,82.138 97.042,83.209 95.685,83.418 C95.62,83.973 96.016,84.065 95.979,84.592 C95.395,84.588 95.606,83.79 94.804,84.004 C94.202,85.259 95.445,85.475 93.629,84.885 C93.505,85.89 94.509,85.767 94.804,86.353 C93.974,86.597 94.043,85.939 93.335,86.06 C93.212,87.065 94.215,86.943 94.511,87.528 C93.616,87.611 93.368,86.589 92.748,87.235 C92.617,88.541 92.957,89.376 93.335,90.172 C93.774,90.222 94.419,90.068 94.511,90.466 C92.93,90.373 95.41,91.824 94.511,91.935 C94.241,91.42 93.964,90.914 93.042,91.054 C93.353,92.147 92.423,92.002 92.16,92.522 C92.987,92.48 93.008,93.241 93.042,93.99 C93.792,94.494 94.069,93.655 94.511,94.285 C94.246,95.39 94.423,96.937 93.923,97.808 C93.996,96.951 93.37,96.795 93.042,96.339 C93.418,96.323 93.448,95.963 93.923,96.046 C90.236,92.836 90.292,85.517 93.923,82.244 C86.273,80.349 85.497,90.2 85.406,95.458 C86.396,96.72 89.717,95.65 89.811,97.808 C88.395,98.347 88.436,97.208 86.581,97.514 C86.457,99.498 87.736,100.077 88.637,101.038 C89.818,101.24 90.314,100.756 91.281,100.744 C92.205,103.837 95.747,101.438 98.916,103.388 C99.899,102.774 97.784,102.284 98.623,101.919 C99.54,103.154 100.899,103.947 102.146,104.856 C102.059,104.084 103.285,104.626 103.027,103.681 C102.125,104.219 101.707,103.416 100.971,103.975 C100.796,102.877 99.7,102.702 99.209,101.919 C101.29,101.894 101.969,103.27 104.2,103.094 C104.524,101.497 103.58,101.17 103.026,100.45 C103.668,99.894 104.894,100.535 104.789,101.625 C105.983,100.901 106.052,102.064 105.963,103.388 C107.796,103.839 108.625,105.172 109.487,107.204 C108.971,107.374 107.761,106.85 107.725,107.498 C108.454,107.543 107.811,108.493 107.725,108.673 C109.146,108.822 108.923,107.327 110.662,107.792 C111.119,108.411 111.187,109.421 112.13,109.555 C112.246,109.049 111.693,108.801 112.13,108.673 C112.794,111.239 115.011,112.253 115.068,115.428 C113.944,116.85 113.161,118.612 111.544,119.538 C111.482,120.971 112.747,121.076 112.718,122.475 C111.018,123.389 108.93,123.647 106.552,122.77 C106.701,124.486 104.836,124.186 105.083,125.999 C105.638,127.782 108.569,127.77 109.488,126.293 C110.839,127.292 110.91,126.359 112.131,125.999 C112.157,127.097 112.46,126.836 112.131,127.761 C114.197,128.349 115.449,129.196 116.536,130.111 C116.625,130.789 115.687,130.438 115.655,130.992 C118.849,132.881 120.843,134.991 125.345,135.984 C125.182,132.602 120.817,131.929 120.94,129.23 C121.82,129.631 122.742,130.907 122.703,129.817 C123.699,131.361 126.072,132.685 127.43,133.552 C127.164,133.249 127.005,132.838 126.814,132.46 C128.438,132.022 126.841,131.716 127.109,130.404 C127.528,130.474 127.604,130.887 127.989,130.991 L127.989,128.936 C126.968,128.618 126.23,127.693 126.814,126.586 C125.931,126.882 126.294,125.932 126.227,125.411 C123.504,125.513 124.42,122.919 122.41,121.887 C122.835,120.777 121.603,121.325 121.823,120.419 C122.17,120.757 122.861,120.751 123.585,120.712 C123.528,119.691 122.546,119.598 122.41,118.657 C123.224,119.475 123.357,118.113 124.173,118.069 C124.327,119.629 126.009,119.688 125.935,120.712 C126.435,120.233 127.408,120.228 127.697,119.537 C127.885,120.804 126.465,120.46 126.522,121.594 C127.28,122.3 127.634,122.569 127.403,123.356 C128.347,123.288 128.464,124.269 129.753,124.531 C129.753,123.552 129.752,122.573 129.753,121.594 C130.313,121.719 130.284,122.433 131.221,122.181 C130.649,120.903 132.424,120.676 131.515,118.951 C132.071,118.885 132.162,119.282 132.69,119.244 C133.418,118.904 131.98,118.028 133.28,118.074 L133.28,118.074 Z" id="Shape"></path>
            <path id="Shape" d="M127.993,133.932 C127.84,133.819 127.648,133.692 127.434,133.555 C127.581,133.721 127.758,133.856 127.993,133.932 L127.993,133.932 Z"></path>
            <path d="M64.269,104.859 C64.676,104.385 64.518,103.344 65.15,103.097 C65.781,104.626 66.253,102.769 66.912,104.271 C67.404,103.784 67.145,102.547 67.207,101.628 C64.975,100.839 61.844,99.611 61.039,96.636 C60.831,95.865 61.426,94.804 61.333,93.992 C60.937,90.566 59.334,87.299 57.516,85.182 C56.369,86.238 56.708,84.86 55.166,84.889 C54.097,86.922 57.755,92.705 55.166,94.287 C54.48,91.055 54.262,87.359 51.055,86.651 C52.098,88.976 51.864,87.702 52.23,89.881 C50.726,88.906 50.467,90.045 49,90.468 C49.373,89.765 50.072,89.386 49.881,88.119 C48.745,87.786 48.152,86.911 46.651,86.944 C46.044,87.498 46.312,88.47 46.064,88.706 C45.072,88.237 44.811,89.952 44.301,88.999 C45.268,87.933 45.962,85.628 44.595,84.595 C42.198,86.187 37.037,87.566 38.428,91.055 C37.507,91.701 36.756,92.515 36.96,94.286 L39.016,94.286 C39.103,95.057 37.876,94.517 38.134,95.46 C40.02,95.939 41.34,94.582 42.317,94.832 C42.432,94.811 42.593,94.893 42.834,95.166 C42.673,94.983 42.502,94.879 42.317,94.832 C42.016,94.89 42.058,95.689 41.953,95.754 C41.313,96.146 39.285,96.661 38.135,97.223 C39.139,102.566 48.022,96.569 49.295,101.333 C46.005,101.637 42.737,100.623 39.897,102.215 C38.915,105.73 43.851,105.639 46.065,106.913 C45.852,108.397 46.388,109.135 46.945,109.85 C50.781,109.623 52.96,108.618 56.342,107.5 C56.879,106.765 56.954,105.566 57.811,105.151 C57.834,106.595 59.212,106.686 60.454,106.913 C60.438,107.288 60.078,107.319 60.161,107.794 C61.498,107.906 64.856,108.671 65.741,106.913 C65.092,106.877 65.615,105.667 65.446,105.151 C64.431,104.919 64.208,105.477 63.684,105.738 C64.103,104.438 62.691,104.97 62.803,103.976 C63.722,103.838 63.575,104.768 64.269,104.859 L64.269,104.859 Z" id="Shape"></path>
            <path d="M15.52,160.949 C14.741,160.946 13.842,161.06 13.465,160.656 C13.948,163.312 14.714,164.672 16.694,166.235 C15.569,164.891 15.011,163.209 15.52,160.949 L15.52,160.949 Z" id="Shape"></path>
            <path d="M147.082,176.807 C146.406,176.913 146.801,178.092 145.907,177.981 C145.777,176.873 146.486,176.602 146.789,175.925 C145.44,175.596 145.625,174.894 146.2,173.87 C145.243,173.081 144.731,173.432 143.558,173.87 C143.477,173.265 142.463,173.593 142.383,172.988 C142.295,172.411 142.779,172.406 142.97,172.107 C141.715,171.365 141.473,172.841 140.914,172.401 C141.083,170.807 142.206,170.169 142.676,168.877 C142.319,168.844 141.981,168.789 142.089,168.29 C142.434,168.244 142.922,168.341 142.97,167.996 C139.514,167.921 139.893,172.146 138.859,174.163 C138.299,175.254 136.787,176.297 136.803,177.98 C139.427,178.002 142.449,177.64 144.145,178.274 C143.591,178.798 142.785,179.068 142.383,179.743 C144.055,179.654 144.01,177.846 145.613,177.687 C146.107,178.666 145.425,178.69 145.319,179.743 C146.529,179.017 145.871,180.38 147.081,180.33 C148.427,178.21 146.478,178.164 147.082,176.807 L147.082,176.807 Z" id="Shape"></path>
            <path d="M131.812,180.917 C130.228,181.033 128.739,181.054 128.582,179.743 C127.641,181.297 130.547,181.213 131.225,182.092 C131.01,181.292 131.808,181.501 131.812,180.917 L131.812,180.917 Z" id="Shape"></path>
            <path d="M61.332,67.563 C63.337,67.458 62.608,68.1 62.8,68.737 C63.179,68.137 64.447,68.427 64.563,67.563 C63.252,67.605 64.825,66.81 64.563,66.095 C63.769,65.828 61.158,65.921 61.332,67.563 L61.332,67.563 Z" id="Shape"></path>
            <path d="M25.799,92.525 C28.196,93.063 29.438,94.758 29.909,97.224 C31.416,97.163 31.625,95.806 32.553,95.167 C34.783,96.34 34.666,92.835 34.902,91.056 C35.84,91.307 35.81,90.594 36.371,90.469 C37.246,86.939 40.865,86.153 43.126,84.008 C41.588,82.218 41.102,79.376 37.84,79.31 C37.236,79.588 37.591,80.823 36.665,80.778 L36.665,79.604 C35.836,79.208 35.93,81.16 35.49,80.191 C36.016,79.067 33.745,78.223 32.847,77.548 C31.188,78.043 29.307,78.316 27.56,78.722 C27.981,81.077 28.97,82.407 29.029,83.715 C27.829,84.12 26.767,86.317 27.854,87.239 L26.974,87.239 C27.387,89.806 25.496,90.069 25.799,92.525 L25.799,92.525 Z" id="Shape"></path>
        </g>
    </g>
</svg>