<?xml version="1.0" encoding="UTF-8" standalone="no"?>
<svg width="815px" height="815px" viewBox="0 0 815 815" version="1.1" xmlns="http://www.w3.org/2000/svg" xmlns:xlink="http://www.w3.org/1999/xlink">
    <!-- Generator: Sketch 3.6.1 (26313) - http://www.bohemiancoding.com/sketch -->
    <title>Slice 1</title>
    <desc>Created with Sketch.</desc>
    <defs></defs>
    <g id="egg" stroke="none" stroke-width="1" fill="none" fill-rule="evenodd">
        <g id="egg-content" fill="#000000">
            <path d="M251.3,407.4 L250.3,407.4 L250.3,407.4 C237.7,408 227.6,418.8 227.6,431.6 C227.6,444.8 238.1,455.3 251.3,455.3 C264.5,455.3 275.5,444.8 275.5,431.6 C275.6,418.5 264.5,407.4 251.3,407.4 L251.3,407.4 Z" id="Shape"></path>
            <path d="M459.1,239.3 C456.3,230.2 451.5,227.9 447.2,227.9 L264.2,227.9 C261.2,227.9 257.4,231.9 254.4,238.7 C247.8,253.7 236.8,280.9 229.7,297.5 C226,306.2 228.2,316.6 239,316.6 L464.3,316.6 C476.1,316.6 477.9,304.6 475.1,297 C469.6,282.1 464.1,255.1 459.1,239.3 L459.1,239.3 Z" id="Shape"></path>
            <path d="M429.2,409.5 L427.7,409.5 L427.7,409.5 C415.1,410.2 405.5,420.9 405.5,433.8 C405.5,447 416,457.5 429.2,457.5 C442.4,457.5 452.9,447 452.9,433.8 C453,420.5 442.4,409.5 429.2,409.5 L429.2,409.5 Z" id="Shape"></path>
            <path d="M357.5,195 L385.9,154.8 L321.5,154.8 L352.9,195 L357.5,195 Z" id="Shape"></path>
            <path d="M514.3,339.3 C514.5,368.5 515,394.6 517.4,423.4 C529.3,431.4 541.8,438.8 554.5,445.6 L554.5,381.7 C540,368.7 526.5,354.5 514.3,339.3 L514.3,339.3 Z" id="Shape"></path>
            <path d="M675.2,488.9 C684,490.7 693,491.8 702,493 L702,455.9 C692.9,453.7 684,451.1 675.2,448.2 L675.2,488.9 L675.2,488.9 Z" id="Shape"></path>
            <path d="M627.2,476.5 C638.2,480 649.3,483.1 660.7,485.8 L660.7,443.5 C649.1,439.1 638.1,433.6 627.2,428 L627.2,476.5 L627.2,476.5 Z" id="Shape"></path>
            <path d="M407.6,0.4 C182.8,0.4 0.6,182.6 0.6,407.4 C0.6,632.2 182.8,814.4 407.6,814.4 C632.4,814.4 814.6,632.2 814.6,407.4 C814.6,182.6 632.4,0.4 407.6,0.4 L407.6,0.4 Z M712.8,564.7 C631.4,569.1 511.3,588.4 468.4,613.2 L194.1,613.2 L194.1,581.2 L239.5,581.2 L239.5,559 L307.6,559 L307.6,581.2 L407.1,581.2 L407.1,559 L712.9,559 L712.9,564.7 L712.8,564.7 Z M248.2,551.8 C223.5,551.8 194.1,526 194.1,499.7 C193.6,455.2 195.8,374.6 197.2,331.1 C197.2,308.2 221.9,258.9 240,213.5 C244.4,204 253.9,194.9 264.7,194.9 L340.5,194.9 L309.1,154.7 L294.1,154.7 C292.1,154.7 290.5,153.1 290.5,151.1 L290.5,143.4 C290.5,141.4 292.1,139.8 294.1,139.8 L414.8,139.8 C416.8,139.8 418.4,141.4 418.4,143.4 L418.4,151.1 C418.4,153.1 416.8,154.7 414.8,154.7 L398.8,154.7 L370.4,194.9 L455,194.9 C475.4,196.3 483.8,202.3 491.6,223.3 C513.7,279.9 546.9,331.5 583.9,366.1 C621.3,401.1 665.2,425.3 712.8,441.9 L712.8,551.7 L248.2,551.7 L248.2,551.8 Z" id="Shape"></path>
            <path d="M575.2,397.1 L575.2,397.1 C575.2,420.6 574.7,428.6 575.2,455.9 C586.5,461.2 597.9,466 609.7,470.4 L609.2,419.9 C597.4,412.9 586,405.4 575.2,397.1 L575.2,397.1 Z" id="Shape"></path>
        </g>
    </g>
</svg>