<?xml version="1.0" encoding="UTF-8" standalone="no"?>
<svg width="61px" height="61px" viewBox="0 0 61 61" version="1.1" xmlns="http://www.w3.org/2000/svg" xmlns:xlink="http://www.w3.org/1999/xlink">
    <g id="circled-arrow" stroke="none" stroke-width="1" fill="none" fill-rule="evenodd">
        <path d="M0,30.379 C0,13.601 13.591,0 30.355,0 C47.125,0 60.71,13.601 60.71,30.379 C60.71,47.152 47.124,60.738 30.355,60.738 C13.591,60.738 0,47.152 0,30.379 L0,30.379 Z" id="Shape" fill="#FFFFFF"></path>
        <path d="M27.478,45.827 C25.986,45.827 24.499,45.263 23.348,44.145 C21.01,41.863 20.964,38.121 23.246,35.783 L28.555,30.342 L23.209,25.057 C20.886,22.757 20.867,19.015 23.158,16.691 C25.459,14.373 29.201,14.349 31.524,16.64 L41.049,26.06 C43.363,28.347 43.392,32.07 41.123,34.399 L31.708,44.045 C30.55,45.227 29.016,45.827 27.478,45.827 L27.478,45.827 Z" id="Shape" fill="#000000"></path>
    </g>
</svg>