<?xml version="1.0" encoding="UTF-8" standalone="no"?>
<svg width="60px" height="60px" viewBox="0 0 60 60" version="1.1" xmlns="http://www.w3.org/2000/svg" xmlns:xlink="http://www.w3.org/1999/xlink">
    <!-- Generator: Sketch 3.6.1 (26313) - http://www.bohemiancoding.com/sketch -->
    <title>Slice 1</title>
    <desc>Created with Sketch.</desc>
    <defs></defs>
    <g id="Page-1" stroke="none" stroke-width="1" fill="none" fill-rule="evenodd">
        <g id="circled-arrow">
            <path d="M0,30.0098785 C0,13.4357404 13.432054,0 30,0 C46.5738758,0 60,13.4357404 60,30.0098785 C60,46.5790773 46.5728875,60 30,60 C13.432054,60 0,46.5790773 0,30.0098785 L0,30.0098785 Z" id="Shape" fill="#FFFFFF"></path>
            <path d="M24.9260815,45 C23.4585406,45 21.9959176,44.4522497 20.8637865,43.3664611 C18.5641143,41.1502091 18.5188684,37.516022 20.7634586,35.2453835 L25.9854258,29.9611473 L20.7270651,24.8284165 C18.4421471,22.5946832 18.4234586,18.9604961 20.6769012,16.7034542 C22.9401799,14.4522395 26.6208356,14.4289309 28.9057537,16.6539236 L38.2746061,25.8025185 C40.5506717,28.0236264 40.5791963,31.6393609 38.347393,33.9012587 L29.0867373,43.2693422 C27.9477209,44.4172869 26.4388684,45 24.9260815,45 L24.9260815,45 Z" id="Shape" fill="#000000"></path>
        </g>
    </g>
</svg>