<?xml version="1.0" encoding="UTF-8" standalone="no"?>
<svg width="60px" height="60px" viewBox="0 0 60 60" version="1.1" xmlns="http://www.w3.org/2000/svg" xmlns:xlink="http://www.w3.org/1999/xlink">
    <!-- Generator: Sketch 3.6.1 (26313) - http://www.bohemiancoding.com/sketch -->
    <title>Slice 1</title>
    <desc>Created with Sketch.</desc>
    <defs></defs>
    <g id="Page-1" stroke="none" stroke-width="1" fill="none" fill-rule="evenodd">
        <g id="pause">
            <path d="M60,50.22 C60,55.6209836 55.6209836,60 50.2190164,60 L9.78098361,60 C4.37901639,60 0,55.6209836 0,50.22 L0,9.78098361 C0,4.37901639 4.37901639,0 9.78098361,0 L50.2190164,0 C55.6209836,0 60,4.37901639 60,9.78098361 L60,50.22 L60,50.22 Z" id="Shape" fill="#FFFFFF"></path>
            <path d="M22.072,46.318 C20.927,46.318 20,45.39 20,44.247 L20,16.071 C20,14.927 20.927,14 22.072,14 C23.216,14 24.143,14.928 24.143,16.071 L24.143,44.246 C24.143,45.39 23.216,46.318 22.072,46.318 L22.072,46.318 Z" id="Shape" fill="#231F20"></path>
            <path d="M39.0704996,46.318 C37.9263287,46.318 37,45.39 37,44.247 L37,16.071 C37,14.927 37.927328,14 39.0704996,14 C40.2136711,14 41.1399999,14.928 41.1399999,16.071 L41.1399999,44.246 C41.1399999,45.39 40.2136711,46.318 39.0704996,46.318 L39.0704996,46.318 Z" id="Shape" fill="#231F20"></path>
        </g>
    </g>
</svg>