<?xml version="1.0" encoding="UTF-8" standalone="no"?>
<svg width="61px" height="61px" viewBox="0 0 61 61" version="1.1" xmlns="http://www.w3.org/2000/svg" xmlns:xlink="http://www.w3.org/1999/xlink">
    <g id="pause" stroke="none" stroke-width="1" fill="none" fill-rule="evenodd">
        <path d="M61,51.057 C61,56.548 56.548,61 51.056,61 L9.944,61 C4.452,61 0,56.548 0,51.057 L0,9.944 C0,4.452 4.452,0 9.944,0 L51.056,0 C56.548,0 61,4.452 61,9.944 L61,51.057 L61,51.057 Z" id="Shape" fill="#FFFFFF"></path>
        <path d="M22.131,47.435 C20.986,47.435 20.059,46.507 20.059,45.364 L20.059,17.188 C20.059,16.044 20.986,15.117 22.131,15.117 C23.275,15.117 24.202,16.045 24.202,17.188 L24.202,45.363 C24.202,46.507 23.275,47.435 22.131,47.435 L22.131,47.435 Z" id="Shape" fill="#231F20"></path>
        <path d="M38.87,47.435 C37.725,47.435 36.798,46.507 36.798,45.364 L36.798,17.188 C36.798,16.044 37.726,15.117 38.87,15.117 C40.014,15.117 40.941,16.045 40.941,17.188 L40.941,45.363 C40.941,46.507 40.014,47.435 38.87,47.435 L38.87,47.435 Z" id="Shape" fill="#231F20"></path>
    </g>
</svg>