<?xml version="1.0" encoding="UTF-8" standalone="no"?>
<svg width="60px" height="60px" viewBox="0 0 60 60" version="1.1" xmlns="http://www.w3.org/2000/svg" xmlns:xlink="http://www.w3.org/1999/xlink">
    <!-- Generator: Sketch 3.6.1 (26313) - http://www.bohemiancoding.com/sketch -->
    <title>Slice 1</title>
    <desc>Created with Sketch.</desc>
    <defs></defs>
    <g id="Page-1" stroke="none" stroke-width="1" fill="none" fill-rule="evenodd">
        <g id="play">
            <path d="M60,50.2193371 C60,55.61916 55.6209836,60 50.2190164,60 L9.78,60 C4.37901639,60 0,55.61916 0,50.2193371 L0,9.77967935 C0,4.37887282 4.37901639,0 9.78,0 L50.2180328,0 C55.6209836,0 60,4.37887282 60,9.77967935 L60,50.2193371 L60,50.2193371 Z" id="Shape" fill="#FFFFFF"></path>
            <path d="M21.3034784,50 C20.7764289,50 20.2483679,49.8008233 19.8406886,49.4004376 C19.012179,48.5874716 18.9959932,47.2562397 19.8052822,46.4229496 L35.9516084,29.8150702 L19.6221806,13.6024955 C18.7997407,12.7854646 18.7916478,11.4522004 19.6039716,10.6250075 C20.4183186,9.79883076 21.7445408,9.7907011 22.569004,10.6067157 L40.378419,28.2897427 C41.1978241,29.1047411 41.2079402,30.4298757 40.4037093,31.259101 L22.8026861,49.3658865 C22.391972,49.7876126 21.8487368,50 21.3034784,50 L21.3034784,50 Z" id="Shape" fill="#231F20"></path>
        </g>
    </g>
</svg>