<?xml version="1.0" encoding="UTF-8" standalone="no"?>
<svg width="61px" height="62px" viewBox="0 0 61 62" version="1.1" xmlns="http://www.w3.org/2000/svg" xmlns:xlink="http://www.w3.org/1999/xlink">
    <g id="play" stroke="none" stroke-width="1" fill="none" fill-rule="evenodd">
        <path d="M61,51.058 C61,56.548 56.548,61.002 51.056,61.002 L9.943,61.002 C4.452,61.002 0,56.548 0,51.058 L0,9.943 C0,4.452 4.452,0 9.943,0 L51.055,0 C56.548,0 61,4.452 61,9.943 L61,51.058 L61,51.058 Z" id="Shape" fill="#FFFFFF"></path>
        <path d="M23.342,50.481 C22.821,50.481 22.299,50.285 21.896,49.891 C21.077,49.091 21.061,47.781 21.861,46.961 L37.822,30.618 L21.68,14.664 C20.867,13.86 20.859,12.548 21.662,11.734 C22.467,10.921 23.778,10.913 24.593,11.716 L42.198,29.117 C43.008,29.919 43.018,31.223 42.223,32.039 L24.824,49.857 C24.418,50.272 23.881,50.481 23.342,50.481 L23.342,50.481 Z" id="Shape" fill="#231F20"></path>
    </g>
</svg>