<?xml version="1.0" encoding="UTF-8" standalone="no"?>
<svg width="47px" height="62px" viewBox="0 0 47 62" version="1.1" xmlns="http://www.w3.org/2000/svg" xmlns:xlink="http://www.w3.org/1999/xlink">
    <g id="origin" stroke="none" stroke-width="1" fill="#FFFFFF" fill-rule="evenodd">
        <path d="M21.359,0 L24.458,0 C32.124,0.884 37.68,4.191 41.385,9.298 C45.098,14.416 46.958,22.006 44.723,29.921 C42.041,39.415 36.034,47.741 30.299,54.713 C28.331,57.108 26.333,59.744 23.624,61.031 L22.194,61.031 C21.672,60.818 20.769,60.488 20.167,59.959 C17.869,57.934 15.812,55.01 13.731,52.33 C11.707,49.725 9.757,47.047 7.889,44.105 C4.293,38.442 0.36,31.877 0.021,23.84 C-0.274,16.851 2.546,11.216 6.101,7.39 C9.798,3.412 14.267,0.788 21.359,0 L21.359,0 L21.359,0 Z M11.346,12.875 C8.986,15.529 7.311,19.61 7.77,24.318 C8.575,32.571 15.248,38.819 24.219,38.026 C32.224,37.319 38.898,30.928 38.167,21.577 C37.835,17.324 35.4,13.748 33.041,11.564 C30.442,9.158 26.334,7.33 21.597,7.749 C17.076,8.148 13.592,10.348 11.346,12.875 L11.346,12.875 L11.346,12.875 Z" id="Shape"></path>
        <path d="M21.955,15.378 C26.68,14.777 30.884,18.305 30.538,23.483 C29.924,32.673 16.039,32.771 15.28,23.602 C14.878,18.757 18.164,15.858 21.955,15.378 L21.955,15.378 L21.955,15.378 Z" id="Shape"></path>
    </g>
</svg>